<svg fill="#000000" width="800px" height="800px" viewBox="0 0 24 24" xmlns="http://www.w3.org/2000/svg">
  <path d="M20,18H4l2-2V10a6,6,0,0,1,5-5.91V3a1,1,0,0,1,2,0V4.09a5.9,5.9,0,0,1,1.3.4A3.992,3.992,0,0,0,18,10v6Zm-8,4a2,2,0,0,0,2-2H10A2,2,0,0,0,12,22ZM18,4a2,2,0,1,0,2,2A2,2,0,0,0,18,4Z"/>
  <style>
    /* Pulsing effect */
    @keyframes pulse {
      0% {
        transform: scale(1);
        opacity: 1;
      }
      50% {
        transform: scale(1.2);
        opacity: 0.6;
      }
      100% {
        transform: scale(1);
        opacity: 1;
      }
    }

    /* Apply the pulsing animation to the entire SVG */
    svg {
      animation: pulse 2s infinite;
    }
  </style>
</svg>
